<svg width="34" height="34" viewBox="0 0 34 34" fill="none" xmlns="http://www.w3.org/2000/svg">
<path d="M17 34C26.3888 34 34 26.3888 34 17C34 7.61116 26.3888 0 17 0C7.61116 0 0 7.61116 0 17C0 26.3888 7.61116 34 17 34Z" fill="#46A358"/>
<path d="M21.6548 15.4372C21.4716 15.2697 21.1989 15.2697 21.0157 15.4372L17.0465 19.1433L13.0773 15.4372C12.8941 15.2697 12.6214 15.2697 12.4382 15.4372C12.255 15.6047 12.255 15.8546 12.4382 16.0221L16.7269 20.0198C16.8185 20.1036 16.9325 20.1455 17.0465 20.1455C17.1605 20.1455 17.2745 20.1036 17.3661 20.0198L21.6548 16.0221C21.838 15.8546 21.838 15.6047 21.6548 15.4372Z" fill="white"/>
</svg>
